<svg width="24" height="9" viewBox="0 0 24 9" fill="none" xmlns="http://www.w3.org/2000/svg">
<path d="M0.65 8V7.02H1.24V8H0.65ZM2.78453 8V0.9H5.19453C5.94786 0.9 6.57453 1.06 7.07453 1.38C7.5812 1.69333 7.9612 2.12 8.21453 2.66C8.46786 3.19333 8.59453 3.78667 8.59453 4.44C8.59453 5.16 8.45453 5.78667 8.17453 6.32C7.89453 6.85333 7.5012 7.26667 6.99453 7.56C6.48786 7.85333 5.88786 8 5.19453 8H2.78453ZM7.89453 4.44C7.89453 3.87333 7.78786 3.37 7.57453 2.93C7.36786 2.49 7.0612 2.14667 6.65453 1.9C6.25453 1.64667 5.76786 1.52 5.19453 1.52H3.48453V7.38H5.19453C5.7812 7.38 6.27453 7.25 6.67453 6.99C7.07453 6.73 7.37786 6.38 7.58453 5.94C7.7912 5.5 7.89453 5 7.89453 4.44ZM12.793 8.05C12.293 8.05 11.8396 7.95 11.433 7.75C11.0263 7.54333 10.6763 7.27 10.383 6.93C10.0896 6.59 9.86297 6.20667 9.70297 5.78C9.54297 5.34667 9.46297 4.90333 9.46297 4.45C9.46297 3.97667 9.5463 3.52667 9.71297 3.1C9.87964 2.66667 10.113 2.28333 10.413 1.95C10.7196 1.61 11.0763 1.34333 11.483 1.15C11.8896 0.95 12.3296 0.85 12.803 0.85C13.2963 0.85 13.7463 0.953333 14.153 1.16C14.5596 1.36667 14.9096 1.64333 15.203 1.99C15.503 2.33667 15.7296 2.72333 15.883 3.15C16.043 3.57667 16.123 4.01333 16.123 4.46C16.123 4.93333 16.0396 5.38667 15.873 5.82C15.7063 6.24667 15.473 6.63 15.173 6.97C14.873 7.30333 14.5196 7.56667 14.113 7.76C13.7063 7.95333 13.2663 8.05 12.793 8.05ZM10.163 4.45C10.163 4.83667 10.2263 5.20667 10.353 5.56C10.4796 5.91333 10.6596 6.23 10.893 6.51C11.1263 6.79 11.403 7.01333 11.723 7.18C12.0496 7.34 12.4063 7.42 12.793 7.42C13.1996 7.42 13.563 7.33667 13.883 7.17C14.2096 6.99667 14.4863 6.76667 14.713 6.48C14.9463 6.19333 15.123 5.87667 15.243 5.53C15.363 5.17667 15.423 4.81667 15.423 4.45C15.423 4.06333 15.3596 3.69333 15.233 3.34C15.1063 2.98667 14.923 2.67 14.683 2.39C14.4496 2.11 14.173 1.89 13.853 1.73C13.533 1.57 13.1796 1.49 12.793 1.49C12.393 1.49 12.0296 1.57333 11.703 1.74C11.383 1.90667 11.1063 2.13333 10.873 2.42C10.6463 2.7 10.4696 3.01667 10.343 3.37C10.223 3.72333 10.163 4.08333 10.163 4.45ZM16.9727 4.4C16.9727 3.97333 17.0461 3.55 17.1927 3.13C17.3461 2.71 17.5661 2.33 17.8527 1.99C18.1394 1.64333 18.4927 1.37 18.9127 1.17C19.3327 0.963333 19.8094 0.86 20.3427 0.86C20.9694 0.86 21.5094 1.00667 21.9627 1.3C22.4161 1.58667 22.7494 1.95667 22.9627 2.41L22.4127 2.75C22.2594 2.43667 22.0661 2.19 21.8327 2.01C21.5994 1.82333 21.3494 1.69 21.0827 1.61C20.8227 1.53 20.5627 1.49 20.3027 1.49C19.8761 1.49 19.4994 1.57667 19.1727 1.75C18.8461 1.91667 18.5694 2.14333 18.3427 2.43C18.1227 2.71667 17.9561 3.03333 17.8427 3.38C17.7294 3.72667 17.6727 4.08 17.6727 4.44C17.6727 4.83333 17.7394 5.21 17.8727 5.57C18.0061 5.92333 18.1927 6.24 18.4327 6.52C18.6727 6.8 18.9527 7.02333 19.2727 7.19C19.5994 7.35 19.9527 7.43 20.3327 7.43C20.5994 7.43 20.8727 7.38333 21.1527 7.29C21.4327 7.19667 21.6927 7.05333 21.9327 6.86C22.1727 6.66667 22.3694 6.41667 22.5227 6.11L23.1027 6.41C22.9494 6.76333 22.7194 7.06333 22.4127 7.31C22.1127 7.55667 21.7727 7.74333 21.3927 7.87C21.0194 7.99667 20.6527 8.06 20.2927 8.06C19.8061 8.06 19.3594 7.95667 18.9527 7.75C18.5461 7.53667 18.1927 7.25667 17.8927 6.91C17.5994 6.55667 17.3727 6.16333 17.2127 5.73C17.0527 5.29 16.9727 4.84667 16.9727 4.4Z" fill="black"/>
</svg>
