<svg width="21" height="8" viewBox="0 0 21 8" fill="none" xmlns="http://www.w3.org/2000/svg">
<path d="M0.65 8V7.02H1.24V8H0.65ZM2.78453 8V0.9H5.72453C6.0312 0.9 6.3112 0.963333 6.56453 1.09C6.82453 1.21667 7.04786 1.39 7.23453 1.61C7.42786 1.82333 7.57453 2.06333 7.67453 2.33C7.7812 2.59 7.83453 2.85667 7.83453 3.13C7.83453 3.51667 7.74786 3.88333 7.57453 4.23C7.4012 4.57 7.1612 4.84667 6.85453 5.06C6.54786 5.27333 6.1912 5.38 5.78453 5.38H3.48453V8H2.78453ZM3.48453 4.76H5.75453C6.03453 4.76 6.27786 4.68333 6.48453 4.53C6.6912 4.37667 6.8512 4.17667 6.96453 3.93C7.07787 3.68333 7.13453 3.41667 7.13453 3.13C7.13453 2.83667 7.06786 2.57 6.93453 2.33C6.8012 2.08333 6.62453 1.88667 6.40453 1.74C6.1912 1.59333 5.95453 1.52 5.69453 1.52H3.48453V4.76ZM9.00523 8V0.9H11.4152C12.1686 0.9 12.7952 1.06 13.2952 1.38C13.8019 1.69333 14.1819 2.12 14.4352 2.66C14.6886 3.19333 14.8152 3.78667 14.8152 4.44C14.8152 5.16 14.6752 5.78667 14.3952 6.32C14.1152 6.85333 13.7219 7.26667 13.2152 7.56C12.7086 7.85333 12.1086 8 11.4152 8H9.00523ZM14.1152 4.44C14.1152 3.87333 14.0086 3.37 13.7952 2.93C13.5886 2.49 13.2819 2.14667 12.8752 1.9C12.4752 1.64667 11.9886 1.52 11.4152 1.52H9.70523V7.38H11.4152C12.0019 7.38 12.4952 7.25 12.8952 6.99C13.2952 6.73 13.5986 6.38 13.8052 5.94C14.0119 5.5 14.1152 5 14.1152 4.44ZM16.1537 8V0.9H20.8137V1.52H16.8537V4.13H20.1937V4.71H16.8537V8H16.1537Z" fill="black"/>
</svg>
